<?xml version="1.0" standalone="no"?>
<!DOCTYPE svg PUBLIC "-//W3C//DTD SVG 1.1//EN" "http://www.w3.org/Graphics/SVG/1.1/DTD/svg11.dtd" >
<svg xmlns="http://www.w3.org/2000/svg" xmlns:xlink="http://www.w3.org/1999/xlink" version="1.1">
<metadata>
Created by FontForge 20161116 at Fri Feb 10 01:43:00 2017
 By Jimmy Wärting
</metadata>
<defs>
<font id="NotoSansKR-Bold-Alphabetic" horiz-adv-x="1000" vert-adv-y="1000" >
  <font-face 
    font-family="NotoSansKR-Bold-Alphabetic"
    font-weight="700"
    font-stretch="normal"
    units-per-em="1000"
    panose-1="2 0 8 3 0 0 0 0 0 0"
    ascent="800"
    descent="-200"
    bbox="10 -244 988 827"
    underline-thickness="50"
    underline-position="-150"
    unicode-range="U+FF21-FF5A"
  />
<missing-glyph horiz-adv-x="364" 
d="M33 0v666h265v-666h-265zM66 33h199v600h-199v-600z" />
    <glyph glyph-name=".notdef" horiz-adv-x="364" 
d="M33 0v666h265v-666h-265zM66 33h199v600h-199v-600z" />
    <glyph glyph-name=".null" horiz-adv-x="0" vert-adv-y="0" 
 />
    <glyph glyph-name="nonmarkingreturn" horiz-adv-x="333" 
 />
    <glyph glyph-name="Identity.59024" unicode="&#xff21;" 
d="M697 0l-62 189h-280l-60 -189h-157l265 743h187l270 -743h-163zM388 304h216l-28 83q-10 32 -37.5 116t-41.5 128h-4q-23 -78 -77 -244z" />
    <glyph glyph-name="Identity.59025" unicode="&#xff22;" 
d="M222 0v743h271q141 0 217.5 -42.5t76.5 -142.5q0 -53 -29 -98.5t-81 -62.5v-4q71 -15 112 -59.5t41 -115.5q0 -110 -81.5 -164t-232.5 -54h-294zM370 439h122q148 0 148 97q0 51 -35.5 72.5t-108.5 21.5h-126v-191zM370 114h143q86 0 128 26t42 87q0 53 -42 77.5
t-129 24.5h-142v-215z" />
    <glyph glyph-name="Identity.59026" unicode="&#xff23;" 
d="M836 97q-109 -109 -265 -109q-166 0 -270.5 100t-104.5 279q0 180 104.5 284t272.5 104q142 0 246 -96l-80 -96q-77 65 -163 65q-104 0 -166 -68.5t-62 -187.5t62 -187t167 -68q99 0 180 76z" />
    <glyph glyph-name="Identity.59027" unicode="&#xff24;" 
d="M204 0v743h221q194 0 301 -92t107 -276t-106.5 -279.5t-293.5 -95.5h-229zM350 120h67q264 0 264 255q0 133 -68 191.5t-196 58.5h-67v-505z" />
    <glyph glyph-name="Identity.59028" unicode="&#xff25;" 
d="M261 0v743h507v-123h-361v-174h277v-124h-277v-198h374v-124h-520z" />
    <glyph glyph-name="Identity.59029" unicode="&#xff26;" 
d="M276 0v743h511v-123h-364v-196h281v-124h-281v-300h-147z" />
    <glyph glyph-name="Identity.59030" unicode="&#xff27;" 
d="M823 77q-101 -89 -265 -89q-175 0 -284.5 100t-109.5 279q0 178 111 283t279 105q153 0 259 -96l-83 -94q-77 63 -171 63q-105 0 -174.5 -69.5t-69.5 -186.5q0 -121 68.5 -188.5t191.5 -67.5q75 0 116 28v144h-159v121h291v-332z" />
    <glyph glyph-name="Identity.59031" unicode="&#xff28;" 
d="M182 0v743h147v-295h342v295h147v-743h-147v320h-342v-320h-147z" />
    <glyph glyph-name="Identity.59032" unicode="&#xff29;" 
d="M225 0v123h201v496h-201v124h553v-124h-204v-496h204v-123h-553z" />
    <glyph glyph-name="Identity.59033" unicode="&#xff2a;" 
d="M719 240q0 -110 -64 -181t-185 -71q-167 0 -254 132l102 77q50 -81 132 -81q121 0 121 136v491h148v-503z" />
    <glyph glyph-name="Identity.59034" unicode="&#xff2b;" 
d="M217 0v743h148v-333h3l298 333h168l-260 -294l303 -449h-165l-226 341l-121 -135v-206h-148z" />
    <glyph glyph-name="Identity.59035" unicode="&#xff2c;" 
d="M280 0v743h148v-619h354v-124h-502z" />
    <glyph glyph-name="Identity.59036" unicode="&#xff2d;" 
d="M128 0v743h163l153 -350q8 -21 27 -69t28 -73h5q7 17 26.5 66.5t29.5 75.5l147 350h164v-743h-135v309q0 87 18 247h-5l-72 -178l-136 -311h-85l-138 311l-71 178h-4q17 -151 17 -247v-309h-132z" />
    <glyph glyph-name="Identity.59037" unicode="&#xff2e;" 
d="M188 0v743h150l248 -388l99 -170h5q-18 140 -18 264v294h140v-743h-151l-247 391l-98 168h-5q17 -197 17 -262v-297h-140z" />
    <glyph glyph-name="Identity.59038" unicode="&#xff2f;" 
d="M866 375q0 -180 -98.5 -283.5t-267.5 -103.5q-163 0 -265 104.5t-102 282.5t101 279t266 101t265.5 -101.5t100.5 -278.5zM284 375q0 -119 59 -189t157 -70t157 70t59 189q0 118 -58.5 185.5t-157.5 67.5t-157.5 -67.5t-58.5 -185.5z" />
    <glyph glyph-name="Identity.59039" unicode="&#xff30;" 
d="M230 0v743h265q322 0 322 -234q0 -121 -87 -183.5t-229 -62.5h-123v-263h-148zM378 380h112q182 0 182 129q0 64 -46.5 90.5t-140.5 26.5h-107v-246z" />
    <glyph glyph-name="Identity.59040" unicode="&#xff31;" 
d="M882 -67l28 -109q-56 -25 -141 -25q-124 0 -209.5 52t-129.5 142q-136 23 -217 124t-81 258q0 177 101 278.5t265 101.5t265.5 -101.5t101.5 -278.5q0 -150 -75 -250t-202 -127q27 -40 82.5 -60.5t117.5 -20.5q44 0 94 16zM498 107q98 0 157 72t59 196q0 117 -59 185
t-157 68q-99 0 -157 -68t-58 -185q0 -125 58 -196.5t157 -71.5z" />
    <glyph glyph-name="Identity.59041" unicode="&#xff32;" 
d="M849 0h-167l-178 280h-136v-280h-140v743h272q311 0 311 -225q0 -80 -44 -134.5t-121 -77.5zM368 626v-229h120q178 0 178 121q0 59 -44 83.5t-134 24.5h-120z" />
    <glyph glyph-name="Identity.59042" unicode="&#xff33;" 
d="M805 209q0 -96 -81 -158.5t-216 -62.5q-184 0 -311 110l85 103q46 -38 108 -61.5t120 -23.5q62 0 103.5 20.5t41.5 59.5q0 17 -8 31t-18.5 23t-32.5 19.5t-37.5 16t-45.5 15.5l-106 37q-72 25 -123.5 76t-51.5 127q0 93 79 153.5t202 60.5q163 0 273 -98l-78 -97
q-92 68 -197 68q-55 0 -92.5 -20.5t-37.5 -58.5q0 -13 4.5 -23.5t17.5 -20t22 -15.5t32 -14.5t32 -12t37 -12.5l105 -36q174 -59 174 -206z" />
    <glyph glyph-name="Identity.59043" unicode="&#xff34;" 
d="M425 0v620h-248v123h646v-123h-249v-620h-149z" />
    <glyph glyph-name="Identity.59044" unicode="&#xff35;" 
d="M675 743h148v-410q0 -345 -322 -345q-315 0 -315 345v410h144v-423q0 -204 171 -204q174 0 174 204v423z" />
    <glyph glyph-name="Identity.59045" unicode="&#xff36;" 
d="M412 0l-260 743h156l117 -363q74 -233 76 -239h5q13 41 37.5 119.5t38.5 119.5l116 363h150l-261 -743h-175z" />
    <glyph glyph-name="Identity.59046" unicode="&#xff37;" 
d="M181 0l-171 743h152l72 -357q21 -110 48 -236h4q11 44 31.5 125.5t27.5 110.5l97 357h125l98 -360q10 -42 30 -120t29 -113h6q9 53 42 233l75 360h141l-165 -743h-186l-96 367q-13 49 -39 174h-5q-21 -107 -38 -174l-95 -367h-183z" />
    <glyph glyph-name="Identity.59047" unicode="&#xff38;" 
d="M169 0l241 379l-225 364h164l90 -156l66 -115h4q48 90 63 115l86 156h156l-225 -366l241 -377h-168l-97 164q-3 5 -28.5 49.5t-40.5 71.5h-4q-14 -26 -37.5 -66t-31.5 -55l-93 -164h-161z" />
    <glyph glyph-name="Identity.59048" unicode="&#xff39;" 
d="M426 0v275l-253 468h157l92 -180q44 -97 77 -164h4q66 134 80 164l91 180h154l-255 -468v-275h-147z" />
    <glyph glyph-name="Identity.59049" unicode="&#xff3a;" 
d="M208 0v89l393 531h-362v123h550v-88l-393 -531h405v-124h-593z" />
    <glyph glyph-name="Identity.59056" unicode="&#xff41;" 
d="M234 153q0 95 89 144.5t291 62.5q-3 46 -34.5 72t-92.5 26q-71 0 -178 -57l-54 97q129 77 259 77q119 0 183.5 -62.5t64.5 -184.5v-328h-120l-11 67h-5q-102 -79 -205 -79q-83 0 -135 46t-52 119zM375 165q0 -64 91 -64q71 0 148 62v107q-132 -8 -185.5 -34.5
t-53.5 -70.5z" />
    <glyph glyph-name="Identity.59057" unicode="&#xff42;" 
d="M801 290q0 -140 -74 -221t-186 -81q-106 0 -177 70h-5l-14 -58h-115v799h148v-203l-5 -89q90 67 187 67q113 0 177 -77.5t64 -206.5zM378 154q57 -45 126 -45q62 0 104 46t42 132q0 80 -35 123t-102 43q-71 0 -135 -58v-241z" />
    <glyph glyph-name="Identity.59058" unicode="&#xff43;" 
d="M238 281q0 134 93.5 213.5t228.5 79.5q129 0 209 -77l-69 -92q-61 48 -132 48q-80 0 -129.5 -47.5t-49.5 -124.5q0 -78 48.5 -125t126.5 -47q76 0 155 58l60 -95q-97 -84 -229 -84q-136 0 -224 79t-88 214z" />
    <glyph glyph-name="Identity.59059" unicode="&#xff44;" 
d="M634 57q-67 -69 -183 -69q-111 0 -182 79t-71 212q0 132 77.5 213.5t180.5 81.5q97 0 171 -61l-6 88v198h148v-799h-118l-13 57h-4zM349 281q0 -83 40.5 -127.5t102.5 -44.5q78 0 129 59v243q-56 42 -128 42q-60 0 -102 -46t-42 -126z" />
    <glyph glyph-name="Identity.59060" unicode="&#xff45;" 
d="M216 281q0 132 89.5 212.5t210.5 80.5q128 0 200 -74.5t72 -192.5q0 -19 -7 -68h-415q7 -67 58.5 -102.5t129.5 -35.5q83 0 163 43l48 -93q-97 -63 -231 -63q-138 0 -228 79t-90 214zM365 338h289q0 58 -34.5 91t-101.5 33q-57 0 -100 -32.5t-53 -91.5z" />
    <glyph glyph-name="Identity.59061" unicode="&#xff46;" 
d="M822 780l-30 -108q-54 22 -120 22q-116 0 -116 -107v-25h206v-116h-206v-446h-146v446h-151v110l151 6v24q0 102 61 163.5t184 61.5q84 0 167 -31z" />
    <glyph glyph-name="Identity.59062" unicode="&#xff47;" 
d="M213 -97q0 68 89 116v5q-57 31 -57 94q0 57 70 105v5q-75 53 -75 144q0 94 71.5 148.5t174.5 54.5q57 0 97 -13h229v-108h-123q33 -35 33 -86q0 -92 -65.5 -141t-170.5 -49q-52 0 -93 14q-30 -22 -30 -48q0 -48 101 -48h120q112 0 168 -33.5t56 -106.5q0 -87 -90 -143.5
t-239 -56.5q-122 0 -194 37t-72 110zM486 267q45 0 75.5 28.5t30.5 76.5q0 47 -31 75.5t-75 28.5q-46 0 -76.5 -28t-30.5 -76t30.5 -76.5t76.5 -28.5zM334 -76q0 -35 44 -55t121 -20q74 0 121.5 24t47.5 59q0 29 -26 39.5t-81 10.5h-92q-55 0 -86 7q-49 -29 -49 -65z" />
    <glyph glyph-name="Identity.59063" unicode="&#xff48;" 
d="M235 0v799h146v-201l-6 -106q97 82 208 82q92 0 141 -57t49 -168v-349h-147v331q0 65 -27 91t-76 26q-72 0 -142 -63v-385h-146z" />
    <glyph glyph-name="Identity.59064" unicode="&#xff49;" 
d="M489 0v446h-223v116h371v-562h-148zM554 654q-41 0 -67.5 24t-26.5 62t26.5 62.5t67.5 24.5q42 0 68 -24.5t26 -62.5t-26 -62t-68 -24z" />
    <glyph glyph-name="Identity.59065" unicode="&#xff4a;" 
d="M252 446v116h382v-542q0 -250 -254 -250q-89 0 -170 38l44 106q62 -28 119 -28q64 0 89.5 30.5t25.5 96.5v433h-236zM557 654q-41 0 -67.5 24t-26.5 62t26.5 62.5t67.5 24.5q42 0 68 -24.5t26 -62.5t-26 -62t-68 -24z" />
    <glyph glyph-name="Identity.59066" unicode="&#xff4b;" 
d="M253 0v799h143v-483h4l235 244h162l-220 -228l243 -332h-162l-169 236l-93 -95v-141h-143z" />
    <glyph glyph-name="Identity.59067" unicode="&#xff4c;" 
d="M235 682v117h318v-593q0 -52 26.5 -75.5t69.5 -23.5q41 0 92 20l34 -109q-99 -30 -163 -30q-100 0 -153 59.5t-53 165.5v469h-171z" />
    <glyph glyph-name="Identity.59068" unicode="&#xff4d;" 
d="M51 0v562h120l10 -77h5q98 89 202 89q123 0 172 -98q107 98 207 98q187 0 187 -225v-349h-145v331q0 117 -100 117q-66 0 -133 -63v-385h-148v331q0 63 -24 90t-75 27q-65 0 -132 -63v-385h-146z" />
    <glyph glyph-name="Identity.59069" unicode="&#xff4e;" 
d="M235 0v562h117l12 -76h4q104 88 212 88q98 0 147 -58t49 -167v-349h-154v331q0 63 -26 90t-77 27q-65 0 -139 -63v-385h-145z" />
    <glyph glyph-name="Identity.59070" unicode="&#xff4f;" 
d="M500 -12q-122 0 -209.5 80t-87.5 213q0 134 87.5 213.5t209.5 79.5t209.5 -79.5t87.5 -213.5q0 -133 -87.5 -213t-209.5 -80zM500 109q69 0 107 46.5t38 125.5t-38 125.5t-107 46.5t-107 -46.5t-38 -125.5t38 -125.5t107 -46.5z" />
    <glyph glyph-name="Identity.59071" unicode="&#xff50;" 
d="M231 -215v777h120l10 -60h4q95 72 195 72q116 0 178.5 -76.5t62.5 -208.5q0 -140 -74.5 -220.5t-187.5 -80.5q-96 0 -167 58l5 -81v-180h-146zM377 396v-241q54 -46 127 -46q64 0 105 45.5t41 132.5q0 166 -136 166q-70 0 -137 -57z" />
    <glyph glyph-name="Identity.59072" unicode="&#xff51;" 
d="M622 -215v179l6 88q-72 -64 -175 -64q-116 0 -185 77.5t-69 213.5q0 133 77 214t183 81q98 0 178 -69h6l13 57h113v-777h-147zM350 282q0 -85 38.5 -129t102.5 -44q79 0 131 57v245q-51 42 -131 42q-58 0 -99.5 -46t-41.5 -125z" />
    <glyph glyph-name="Identity.59073" unicode="&#xff52;" 
d="M300 0v562h121l11 -126h4q41 67 102 102.5t132 35.5q67 0 115 -22l-37 -124q-54 18 -100 18q-128 0 -202 -144v-302h-146z" />
    <glyph glyph-name="Identity.59074" unicode="&#xff53;" 
d="M225 73l67 92q105 -69 212 -69q59 0 88.5 16.5t29.5 42.5t-38 45t-121 41q-205 56 -205 164q0 75 68.5 122t185.5 47q127 0 238 -74l-67 -89q-89 54 -168 54q-109 0 -109 -54q0 -25 38 -42.5t113 -36.5q103 -27 157.5 -65t54.5 -104q0 -76 -71.5 -125.5t-197.5 -49.5
q-74 0 -147.5 23.5t-127.5 61.5z" />
    <glyph glyph-name="Identity.59075" unicode="&#xff54;" 
d="M366 231v215h-146v110l153 6l19 152h122v-152h248v-116h-248v-215q0 -67 29 -97.5t95 -30.5q48 0 118 22l28 -107q-100 -30 -182 -30q-236 0 -236 243z" />
    <glyph glyph-name="Identity.59076" unicode="&#xff55;" 
d="M628 83q-92 -95 -209 -95q-93 0 -141 59t-48 166v349h147v-331q0 -117 102 -117q74 0 138 70v378h147v-562h-119l-13 83h-4z" />
    <glyph glyph-name="Identity.59077" unicode="&#xff56;" 
d="M418 0l-219 562h149l98 -281q15 -44 55 -170h5q17 56 54 170l99 281h142l-213 -562h-170z" />
    <glyph glyph-name="Identity.59078" unicode="&#xff57;" 
d="M219 0l-170 562h146l76 -279q17 -77 39 -163h6q28 111 44 161l77 281h131l81 -279q6 -22 22 -77.5t24 -85.5h5q7 27 18.5 81t18.5 82l74 279h137l-161 -562h-173l-69 244q-35 126 -45 166h-5q-5 -24 -42 -166l-66 -244h-168z" />
    <glyph glyph-name="Identity.59079" unicode="&#xff58;" 
d="M210 0l199 293l-185 269h158l67 -100q8 -14 28.5 -46.5t30.5 -49.5h5q8 16 25 48.5t25 48.5l60 99h153l-187 -286l200 -276h-158l-74 103q-12 19 -36 53.5t-31 45.5h-5q-9 -17 -28 -50t-28 -49l-65 -103h-154z" />
    <glyph glyph-name="Identity.59080" unicode="&#xff59;" 
d="M577 -17q-46 -106 -103.5 -156.5t-152.5 -50.5q-43 0 -86 12l29 112q20 -8 46 -8q92 0 124 85l11 34l-246 551h149l106 -262q12 -29 33 -87.5t25 -70.5h5q8 26 25 79t26 79l92 262h141z" />
    <glyph glyph-name="Identity.59081" unicode="&#xff5a;" 
d="M258 0v79l298 367h-267v116h456v-79l-298 -368h309v-115h-498z" />
  </font>
</defs>
</svg>
